 <svg  version="1.0" xmlns="http://www.w3.org/2000/svg"  width="300.000000pt" height="295.000000pt" viewBox="0 0 300.000000 295.000000"  preserveAspectRatio="xMidYMid meet">  <g transform="translate(-1900.000000,295.000000) scale(0.050000,-0.050000)" fill="#ffffff" stroke="none"> <path d="M0 2950 l0 -2950 3000 0 3000 0 0 2950 0 2950 -3000 0 -3000 0 0 -2950z m2415 1260 c471 -140 564 -719 172 -1063 -301 -265 -335 -621 -85 -896 260 -284 232 -611 -65 -759 -453 -226 -839 334 -489 708 150 161 182 241 182 460 0 237 -19 275 -239 490 -133 130 -173 183 -210 280 -173 461 259 921 734 780z m2145 -20 c20 -24 19 -31 -3 -39 -15 -5 -85 -28 -157 -52 -291 -95 -592 -355 -1136 -987 -85 -98 -130 -11 665 -1282 145 -231 306 -490 358 -575 164 -265 291 -383 479 -443 22 -7 34 -26 30 -47 -10 -53 -773 -53 -871 0 -87 48 -203 172 -286 307 -142 230 -557 844 -692 1022 -364 483 -355 539 195 1097 419 427 458 491 431 716 -12 98 -88 213 -143 213 -40 0 -97 53 -82 77 24 38 1180 32 1212 -7z"/> </g> </svg> 