<svg fill="#ffffff" height="64px" width="64px" version="1.1" id="Capa_1" xmlns="http://www.w3.org/2000/svg" xmlns:xlink="http://www.w3.org/1999/xlink" viewBox="0 0 372 372" xml:space="preserve" stroke="#ffffff"><g id="SVGRepo_bgCarrier" stroke-width="0"></g><g id="SVGRepo_tracerCarrier" stroke-linecap="round" stroke-linejoin="round"></g><g id="SVGRepo_iconCarrier"> <g> <g id="Layer_5_48_"> <g> <path d="M337,24.997H35c-19.299,0-35,15.701-35,35v252.006c0,19.299,15.701,35,35,35c0,0,38.793,0,51.725,0 c8.25,0,7.213-6.321,7.213-6.321c-0.287-2.944-0.433-5.856-0.433-8.655c0-23.979,9.632-41.517,28.628-52.124 c11.887-6.638,27.515-10.564,47.477-11.899c2.083-0.14,6.39,0.11,6.39-5.39c0,0,0-26.75,0-35.667c0-5-5.025-4.484-5.025-4.484 h-59.457c-5.523,0-10-4.478-10-10s4.477-10,10-10c0,0,45.822,0,61.29,0c1.427,0,3.192-1.266,3.192-3.349c0-8.268,0-21.521,0-29 c0-2.667-2.526-2.651-2.526-2.651h-54.462c-5.523,0-10-4.478-10-10s4.477-10,10-10h54.38c0,0,2.608,0.317,2.608-2.683 c0-8.079,0-21.156,0-28.208c0-4.5-4.65-4.109-4.65-4.109h-29.338c-5.523,0-10-4.478-10-10s4.477-10,10-10h30.713 c0,0,3.275,0.234,3.275-3.391c0-9.652,0-38.609,0-38.609c0-5.522,4.478-10,10-10c5.522,0,10,4.478,10,10c0,0,0,28.957,0,38.609 c0,3.875,3.85,3.391,3.85,3.391h30.139c5.522,0,10,4.478,10,10s-4.478,10-10,10H200.6c0,0-4.6-0.266-4.6,4.109 c0,7.052,0,20.129,0,28.208c0,2.75,2.975,2.683,2.975,2.683h54.014c5.522,0,10,4.478,10,10s-4.478,10-9.333,10h-54.931 c0,0-2.725,0.067-2.725,2.651c0,7.672,0,21.504,0,29.771c0,2.5,2.475,2.578,2.475,2.578h62.008c5.522,0,10,4.478,10,10 s-4.478,10-10,10h-59.008c0,0-5.475-0.349-5.475,4.484c0,8.875,0,35.5,0,35.5c0,5.167,4.279,5.416,6.35,5.554 c19.981,1.332,35.622,5.261,47.519,11.902c18.996,10.607,28.628,28.145,28.628,52.124c0,2.81-0.146,5.723-0.433,8.658 c0,0-1.589,6.318,7.161,6.318c12.943,0,51.775,0,51.775,0c19.299,0,35-15.701,35-35V59.997C372,40.698,356.299,24.997,337,24.997 z"></path> </g> </g> </g> </g></svg>